<?xml version="1.0" encoding="UTF-8"?>
<svg width="30px" height="30px" viewBox="0 0 40 40" version="1.1" xmlns="http://www.w3.org/2000/svg" xmlns:xlink="http://www.w3.org/1999/xlink">
    <!-- Generator: sketchtool 57.1 (101010) - https://sketch.com -->
    <title>653119EF-0028-4FB8-A577-1BD8AE7252A6</title>
    <desc>Created with sketchtool.</desc>
    <g id="Page-1" stroke="none" stroke-width="1" fill="none" fill-rule="evenodd">
        <g id="Artboard" transform="translate(-1360.000000, -540.000000)" fill="#FFBEFD" fill-rule="nonzero">
            <g id="Group-6" transform="translate(320.000000, 501.000000)">
                <g id="Group-5">
                    <g id="Group-3" transform="translate(1040.000000, 39.000000)">
                        <g id="time-clock-circle-2">
                            <g id="Group">
                                <path d="M20.25,39.75 C31.0195526,39.75 39.75,31.0195526 39.75,20.25 C39.75,9.48044738 31.0195526,0.75 20.25,0.75 C9.48044738,0.75 0.75,9.48044738 0.75,20.25 C0.75,31.0195526 9.48044738,39.75 20.25,39.75 Z M20.25,36.2045455 C11.4385479,36.2045455 4.29545455,29.0614521 4.29545455,20.25 C4.29545455,11.4385479 11.4385479,4.29545455 20.25,4.29545455 C29.0614521,4.29545455 36.2045455,11.4385479 36.2045455,20.25 C36.2045455,29.0614521 29.0614521,36.2045455 20.25,36.2045455 Z" id="Oval"></path>
                                <path d="M23,20.25 L23,9.75 C23,8.78350169 22.1045695,8 21,8 C19.8954305,8 19,8.78350169 19,9.75 L19,20.25 C19,21.2164983 19.8954305,22 21,22 C22.1045695,22 23,21.2164983 23,20.25 Z" id="Path"></path>
                                <path d="M21.5,22.75 L32,22.75 C32.9664983,22.75 33.75,21.8545695 33.75,20.75 C33.75,19.6454305 32.9664983,18.75 32,18.75 L21.5,18.75 C20.5335017,18.75 19.75,19.6454305 19.75,20.75 C19.75,21.8545695 20.5335017,22.75 21.5,22.75 Z" id="Path"></path>
                            </g>
                        </g>
                    </g>
                </g>
            </g>
        </g>
    </g>
</svg>