<?xml version="1.0" encoding="utf-8"?>
<!-- Generator: Adobe Illustrator 17.0.0, SVG Export Plug-In . SVG Version: 6.00 Build 0)  -->
<!DOCTYPE svg PUBLIC "-//W3C//DTD SVG 1.1//EN" "http://www.w3.org/Graphics/SVG/1.1/DTD/svg11.dtd">
<svg version="1.1" id="Layer_1" xmlns="http://www.w3.org/2000/svg" xmlns:xlink="http://www.w3.org/1999/xlink" x="0px" y="0px"
	 width="111.3px" height="111.3px" viewBox="0 0 111.3 111.3" enable-background="new 0 0 111.3 111.3" xml:space="preserve">
<g>
	<rect x="0" y="0" fill="#D82C20" width="111.3" height="111.3"/>
	<g>
		<path fill="#FFFFFF" d="M67.685,43.235c13.598-10.071,18.828-18.49,20.82-23.809l0.092-0.313c0,0,0.753-2.744-0.048-3.004
			c-0.293-0.095-0.742,1.971-2.943,5.619c-0.343-0.875-0.91-1.964-1.562-1.802c-0.173,0.044-0.221,0.233-0.181,0.547
			c0.045,0.357,0.488,1.756,0.807,2.733C84.1,24.07,83.441,25,82.676,25.994c-0.465-1.249-1.384-3.237-2.442-2.973
			c-0.255,0.065-0.317,0.333-0.265,0.781c0.074,0.565,0.777,2.813,1.184,4.082c-0.723,0.861-1.52,1.76-2.399,2.696
			c-0.401-1.293-1.701-5.019-3.281-4.623c-0.32,0.082-0.401,0.414-0.326,0.975c0.106,0.845,1.164,4.475,1.493,5.594
			c-0.828,0.703-1.86,1.549-3.045,2.505c-0.394-1.501-2.017-7.077-4.261-6.601c-0.431,0.094-0.551,0.541-0.482,1.297
			c0.107,1.225,1.497,6.629,1.769,7.677c-0.995,0.788-2.051,1.619-3.147,2.479c-0.186-0.747-2.392-9.323-5.479-8.662
			c-0.531,0.11-0.686,0.672-0.598,1.616c0.134,1.481,1.952,8.299,2.391,9.929c-1.129,0.881-2.277,1.776-3.43,2.674
			c-0.628-2.394-3.25-11.424-6.872-10.652c-0.684,0.144-0.887,0.866-0.777,2.092c0.181,1.95,2.365,10.505,2.832,12.318
			c-1.197,0.935-2.372,1.855-3.508,2.747c-0.373-1.515-3.601-14.044-8.224-13.052c-0.808,0.167-1.038,1.016-0.907,2.451
			c0.211,2.356,3.295,13.021,3.817,14.816c-1.106,0.889-2.112,1.707-2.988,2.433c-1.158-2.523-6.607-13.75-11.08-12.024
			c-0.837,0.323-0.944,1.258-0.555,2.764c0.583,2.308,4.865,11.972,6.055,14.636c-0.922,1.066-1.828,2.194-2.698,3.334h-0.094
			l0.024-0.036c0,0-5.675-14.105-10.709-12.162c-0.836,0.323-0.943,1.26-0.553,2.762c0.639,2.539,6.008,14.81,6.605,16.171
			c-1.706,2.618-2.789,4.482-2.789,4.482l-6.23,11.935l-0.001,0.004c-0.279,0.507-0.372,1.464-0.191,2.52
			c0.257,1.5,0.956,2.631,1.568,2.526c0.169-0.028,0.316-0.158,0.434-0.356l0.005,0.017c0,0,0.015-0.033,0.03-0.083
			c0.049-0.094,0.093-0.208,0.126-0.331c0.44-1.108,1.846-4.484,4.957-10.334l0.875-1.391c1.522-2.984,3.128-5.942,4.612-8.314
			C39.055,66.834,43.044,61.486,67.685,43.235z"/>
		<path fill="#FFFFFF" d="M39.15,70.983c-1.187,1.602-2.198,3.165-3.247,4.843c-0.412,0.657-0.831,1.363-1.258,2.099
			c2.835,0.196,15.053,1.014,17.493,0.771c1.54-0.148,2.383-0.561,2.405-1.459C54.65,72.177,40.89,71.096,39.15,70.983z"/>
		<path fill="#FFFFFF" d="M47.524,61.97c-2.547,2.318-4.473,4.288-6.041,6.106c1.826,0.284,15.113,2.359,17.695,2.329
			c1.554-0.017,2.429-0.355,2.528-1.247C62.236,64.255,49.686,62.272,47.524,61.97z"/>
		<path fill="#FFFFFF" d="M56.105,54.728c-2.026,1.617-3.823,3.098-5.417,4.459c1.629,0.555,11.991,4.071,14.143,4.427
			c1.31,0.214,2.104,0.059,2.32-0.677C68.376,58.728,57.234,55.084,56.105,54.728z"/>
		<path fill="#FFFFFF" d="M63.875,48.707c-1.835,1.387-3.532,2.692-5.102,3.92c1.392,0.585,10.536,4.427,12.461,4.881
			c1.155,0.283,1.877,0.189,2.12-0.459C74.678,53.456,65.385,49.35,63.875,48.707z"/>
		<path fill="#FFFFFF" d="M70.799,43.507c-0.605,0.468-1.224,0.938-1.865,1.413c-0.855,0.634-1.679,1.251-2.482,1.85
			c1.161,0.488,9.017,3.79,10.665,4.177c1,0.237,1.612,0.162,1.815-0.391C80.067,47.464,72.01,44.009,70.799,43.507z"/>
		<path fill="#FFFFFF" d="M76.805,38.491c-1.132,1.031-2.352,2.082-3.66,3.157c1.452,0.482,8.275,2.721,9.725,2.949
			c0.913,0.14,1.458,0.028,1.602-0.482C85.282,41.237,77.822,38.806,76.805,38.491z"/>
		<path fill="#FFFFFF" d="M82.135,33.156c-0.863,0.961-1.801,1.948-2.821,2.957c1.258,0.297,7.217,1.694,8.464,1.777
			c0.783,0.055,1.239-0.082,1.318-0.523C89.585,34.799,82.713,33.278,82.135,33.156z"/>
		<path fill="#FFFFFF" d="M85.929,28.547l-0.569,0.68c-0.371,0.497-0.764,1-1.178,1.513c0.653,0.086,5.046,0.645,5.933,0.611
			c0.532-0.021,0.828-0.144,0.854-0.45C91.123,29.053,85.929,28.547,85.929,28.547z"/>
		<path fill="#FFFFFF" d="M88.382,24.619c-0.334,0.595-0.701,1.209-1.109,1.841c0.848-0.024,3.709-0.121,4.308-0.237
			c0.396-0.08,0.602-0.205,0.586-0.44C92.077,24.6,89.23,24.597,88.382,24.619z"/>
	</g>
</g>
</svg>
