<?xml version="1.0" encoding="UTF-8"?>
<svg width="32px" height="32px" viewBox="0 0 32 32" version="1.1" xmlns="http://www.w3.org/2000/svg" xmlns:xlink="http://www.w3.org/1999/xlink">
    <!-- Generator: Sketch 57.1 (83088) - https://sketch.com -->
    <title>money@2x</title>
    <desc>Created with Sketch.</desc>
    <g id="money" stroke="none" stroke-width="1" fill="none" fill-rule="evenodd">
        <g id="currency-dollar-circle" transform="translate(5.000000, 5.000000)" fill="#FFBEFD" fill-rule="nonzero">
            <path d="M11,22.25 C17.2132034,22.25 22.25,17.2132034 22.25,11 C22.25,4.78679656 17.2132034,-0.25 11,-0.25 C4.78679656,-0.25 -0.25,4.78679656 -0.25,11 C-0.25,17.2132034 4.78679656,22.25 11,22.25 Z M11,20.75 C5.61522369,20.75 1.25,16.3847763 1.25,11 C1.25,5.61522369 5.61522369,1.25 11,1.25 C16.3847763,1.25 20.75,5.61522369 20.75,11 C20.75,16.3847763 16.3847763,20.75 11,20.75 Z" id="Oval"></path>
            <path d="M14,5.75 L9.789,5.75 C9.14436552,5.69614633 8.45080361,5.95156957 7.95118659,6.45118659 C7.45156957,6.95080361 7.19614633,7.64436552 7.25237899,8.34868946 C7.25,9.53012171 8.04207762,10.1596034 10.6252519,11.6496644 C12.5420776,12.7553534 13.25,13.317955 13.25,13.711 C13.255154,13.9982337 13.1487426,14.2619642 12.9553534,14.4553534 C12.7619642,14.6487426 12.4982337,14.755154 12.2247864,14.7501267 L8,14.75 C7.58578644,14.75 7.25,15.0857864 7.25,15.5 C7.25,15.9142136 7.58578644,16.25 8,16.25 L12.211,16.25 C12.8779808,16.2623891 13.5345571,15.99747 14.0160136,15.5160136 C14.49747,15.0345571 14.7623891,14.3779808 14.7498733,13.6972136 C14.75,12.4698783 13.9579224,11.8403966 11.3747481,10.3503356 C9.45792238,9.24464661 8.75,8.68204496 8.75,8.289 C8.7263589,7.96299899 8.82293685,7.70075668 9.01184676,7.51184676 C9.20075668,7.32293685 9.46299899,7.2263589 9.72931054,7.24762101 L14,7.25 C14.4142136,7.25 14.75,6.91421356 14.75,6.5 C14.75,6.08578644 14.4142136,5.75 14,5.75 Z" id="Path"></path>
            <path d="M11.75,6.5 L11.75,4.25 C11.75,3.83578644 11.4142136,3.5 11,3.5 C10.5857864,3.5 10.25,3.83578644 10.25,4.25 L10.25,6.5 C10.25,6.91421356 10.5857864,7.25 11,7.25 C11.4142136,7.25 11.75,6.91421356 11.75,6.5 Z" id="Path"></path>
            <path d="M11.75,17.75 L11.75,15.5 C11.75,15.0857864 11.4142136,14.75 11,14.75 C10.5857864,14.75 10.25,15.0857864 10.25,15.5 L10.25,17.75 C10.25,18.1642136 10.5857864,18.5 11,18.5 C11.4142136,18.5 11.75,18.1642136 11.75,17.75 Z" id="Path"></path>
        </g>
    </g>
</svg>