<?xml version="1.0" encoding="UTF-8"?>
<svg width="32px" height="32px" viewBox="0 0 32 32" version="1.1" xmlns="http://www.w3.org/2000/svg" xmlns:xlink="http://www.w3.org/1999/xlink">
    <!-- Generator: Sketch 57.1 (83088) - https://sketch.com -->
    <title>org@2x</title>
    <desc>Created with Sketch.</desc>
    <g id="org" stroke="none" stroke-width="1" fill="none" fill-rule="evenodd" stroke-linecap="round" stroke-linejoin="round">
        <g id="presentation" transform="translate(4.000000, 4.000000)" stroke="#FFBEFD" stroke-width="1.5">
            <circle id="Oval" cx="20" cy="18.375" r="2.625"></circle>
            <path d="M23.249,23.25 C22.4379043,22.2976681 21.2499245,21.7490067 19.999,21.7490067 C18.7480755,21.7490067 17.5600957,22.2976681 16.749,23.25" id="Path"></path>
            <circle id="Oval" cx="3.998" cy="18.375" r="2.625"></circle>
            <path d="M7.247,23.25 C6.43590432,22.2976681 5.24792453,21.7490067 3.997,21.7490067 C2.74607547,21.7490067 1.55809568,22.2976681 0.747,23.25" id="Path"></path>
            <circle id="Oval" cx="12.203" cy="3.375" r="2.625"></circle>
            <path d="M15.452,8.25 C14.6409043,7.29766814 13.4529245,6.74900668 12.202,6.74900668 C10.9510755,6.74900668 9.76309568,7.29766814 8.952,8.25" id="Path"></path>
            <path d="M5.775,16.443 L6.608,12.043 C6.67288665,11.5961826 7.04779956,11.2595604 7.499,11.243 L16.499,11.243 C16.9502004,11.2595604 17.3251134,11.5961826 17.39,12.043 L18.223,16.443" id="Path"></path>
        </g>
    </g>
</svg>